<svg width="24" height="24" viewBox="0 0 24 24" fill="none" xmlns="http://www.w3.org/2000/svg">
<mask id="mask0_3019_1140" style="mask-type:alpha" maskUnits="userSpaceOnUse" x="0" y="-1" width="24" height="25">
<rect y="-0.000976562" width="24" height="24" fill="#D9D9D9"/>
</mask>
<g mask="url(#mask0_3019_1140)">
<path d="M11.9997 14.2738C11.103 14.2738 10.3411 13.9601 9.71395 13.3326C9.08679 12.7051 8.7732 11.9431 8.7732 11.0466V5.08858C8.7732 4.19208 9.08704 3.43008 9.7147 2.80258C10.3424 2.17508 11.1045 1.86133 12.0012 1.86133C12.8979 1.86133 13.6598 2.17508 14.287 2.80258C14.9141 3.43008 15.2277 4.19208 15.2277 5.08858V11.0466C15.2277 11.9431 14.9139 12.7051 14.2862 13.3326C13.6585 13.9601 12.8964 14.2738 11.9997 14.2738ZM10.9107 21.3636V18.2646C9.1097 18.0232 7.62262 17.2162 6.44945 15.8433C5.27612 14.4703 4.68945 12.8714 4.68945 11.0466H6.87495C6.87495 12.4659 7.37479 13.675 8.37445 14.6738C9.37412 15.6727 10.5832 16.1721 12.0017 16.1721C13.42 16.1721 14.6287 15.6724 15.6277 14.6731C16.6265 13.6736 17.126 12.4647 17.126 11.0466H19.3115C19.3115 12.8724 18.7248 14.4715 17.5515 15.8438C16.3783 17.2163 14.8912 18.0232 13.0902 18.2646V21.3636H10.9107Z" fill="#1C1B1F"/>
</g>
</svg>
