<svg width="25" height="24" viewBox="0 0 25 24" fill="none" xmlns="http://www.w3.org/2000/svg">
<mask id="mask0_2976_1067" style="mask-type:alpha" maskUnits="userSpaceOnUse" x="0" y="0" width="25" height="24">
<rect x="0.333496" width="24" height="24" fill="#D9D9D9"/>
</mask>
<g mask="url(#mask0_2976_1067)">
<path d="M12.3335 19.269C11.921 19.269 11.5679 19.1221 11.2742 18.8282C10.9804 18.5346 10.8335 18.1815 10.8335 17.769C10.8335 17.3565 10.9804 17.0033 11.2742 16.7095C11.5679 16.4158 11.921 16.269 12.3335 16.269C12.746 16.269 13.0991 16.4158 13.3927 16.7095C13.6866 17.0033 13.8335 17.3565 13.8335 17.769C13.8335 18.1815 13.6866 18.5346 13.3927 18.8282C13.0991 19.1221 12.746 19.269 12.3335 19.269ZM12.3335 13.4997C11.921 13.4997 11.5679 13.3528 11.2742 13.059C10.9804 12.7653 10.8335 12.4122 10.8335 11.9997C10.8335 11.5872 10.9804 11.2341 11.2742 10.9405C11.5679 10.6466 11.921 10.4997 12.3335 10.4997C12.746 10.4997 13.0991 10.6466 13.3927 10.9405C13.6866 11.2341 13.8335 11.5872 13.8335 11.9997C13.8335 12.4122 13.6866 12.7653 13.3927 13.059C13.0991 13.3528 12.746 13.4997 12.3335 13.4997ZM12.3335 7.73047C11.921 7.73047 11.5679 7.58364 11.2742 7.28997C10.9804 6.99614 10.8335 6.64297 10.8335 6.23047C10.8335 5.81797 10.9804 5.46489 11.2742 5.17122C11.5679 4.87739 11.921 4.73047 12.3335 4.73047C12.746 4.73047 13.0991 4.87739 13.3927 5.17122C13.6866 5.46489 13.8335 5.81797 13.8335 6.23047C13.8335 6.64297 13.6866 6.99614 13.3927 7.28997C13.0991 7.58364 12.746 7.73047 12.3335 7.73047Z" fill="#1C1B1F"/>
</g>
</svg>
