<svg width="24" height="24" viewBox="0 0 24 24" fill="none" xmlns="http://www.w3.org/2000/svg">
<mask id="mask0_3018_1103" style="mask-type:alpha" maskUnits="userSpaceOnUse" x="0" y="0" width="24" height="24">
<rect width="24" height="24" fill="#D9D9D9"/>
</mask>
<g mask="url(#mask0_3018_1103)">
<path d="M19.5882 21.2271L13.2464 14.8851C12.7504 15.2692 12.1784 15.574 11.5304 15.7993C10.8824 16.0246 10.1898 16.1373 9.45244 16.1373C7.59977 16.1373 6.03036 15.4942 4.74419 14.2081C3.45802 12.9217 2.81494 11.3523 2.81494 9.4998C2.81494 7.64731 3.45802 6.07789 4.74419 4.79155C6.03036 3.50539 7.59977 2.8623 9.45244 2.8623C11.3049 2.8623 12.8743 3.50539 14.1604 4.79155C15.4468 6.07789 16.0899 7.64731 16.0899 9.4998C16.0899 10.2411 15.9773 10.9338 15.7519 11.5778C15.5264 12.2218 15.2217 12.7898 14.8377 13.2818L21.1854 19.6356L19.5882 21.2271ZM9.45244 13.8623C10.6664 13.8623 11.697 13.4387 12.5442 12.5916C13.3914 11.7446 13.8149 10.714 13.8149 9.4998C13.8149 8.28564 13.3914 7.25505 12.5442 6.40806C11.697 5.56089 10.6664 5.1373 9.45244 5.1373C8.23828 5.1373 7.20761 5.56089 6.36044 6.40806C5.51344 7.25505 5.08994 8.28564 5.08994 9.4998C5.08994 10.714 5.51344 11.7446 6.36044 12.5916C7.20761 13.4387 8.23828 13.8623 9.45244 13.8623Z" fill="#3C3C3C"/>
</g>
</svg>
