<svg width="24" height="24" viewBox="0 0 24 24" fill="none" xmlns="http://www.w3.org/2000/svg">
<mask id="mask0_3020_1471" style="mask-type:alpha" maskUnits="userSpaceOnUse" x="0" y="0" width="24" height="24">
<rect width="24" height="24" fill="#D9D9D9"/>
</mask>
<g mask="url(#mask0_3020_1471)">
<path d="M4.30775 21.4997C3.80258 21.4997 3.375 21.3247 3.025 20.9747C2.675 20.6247 2.5 20.1971 2.5 19.692V10.3075C2.5 9.8023 2.675 9.37472 3.025 9.02472C3.375 8.67472 3.80258 8.49972 4.30775 8.49972H19.6923C20.1974 8.49972 20.625 8.67472 20.975 9.02472C21.325 9.37472 21.5 9.8023 21.5 10.3075V19.692C21.5 20.1971 21.325 20.6247 20.975 20.9747C20.625 21.3247 20.1974 21.4997 19.6923 21.4997H4.30775ZM4.30775 19.9997H19.6923C19.7693 19.9997 19.8398 19.9676 19.9038 19.9035C19.9679 19.8395 20 19.769 20 19.692V10.3075C20 10.2305 19.9679 10.16 19.9038 10.096C19.8398 10.0318 19.7693 9.99972 19.6923 9.99972H4.30775C4.23075 9.99972 4.16025 10.0318 4.09625 10.096C4.03208 10.16 4 10.2305 4 10.3075V19.692C4 19.769 4.03208 19.8395 4.09625 19.9035C4.16025 19.9676 4.23075 19.9997 4.30775 19.9997ZM10.25 18.5382L15.5577 14.9997L10.25 11.4612V18.5382ZM4.25 7.11522V5.61522H19.75V7.11522H4.25ZM7.25 4.23047V2.73047H16.75V4.23047H7.25Z" fill="#1C1B1F"/>
</g>
</svg>
